<svg width="343" height="261" viewBox="0 0 343 261" fill="none" xmlns="http://www.w3.org/2000/svg">
<path d="M171.344 247.295C238.859 247.295 293.591 244.117 293.591 240.196C293.591 236.275 238.859 233.097 171.344 233.097C103.829 233.097 49.0977 236.275 49.0977 240.196C49.0977 244.117 103.829 247.295 171.344 247.295Z" fill="#F5F5F5"/>
<path d="M233.226 51.5018C231.883 50.166 229.298 45.105 231.776 42.7218C234.253 40.3387 236.46 42.5023 236.63 43.6625C236.801 44.8227 236.347 54.5999 233.226 51.5018Z" fill="#263238"/>
<path d="M232.658 233.555L227.028 233.605L225.496 220.661L231.12 220.61L232.658 233.555Z" fill="#FF8B7B"/>
<path d="M227.022 232.959L233.163 232.902C233.276 232.904 233.386 232.941 233.476 233.009C233.567 233.077 233.634 233.171 233.667 233.279L235.155 238.239C235.195 238.355 235.206 238.478 235.187 238.599C235.169 238.719 235.121 238.834 235.049 238.932C234.976 239.03 234.881 239.11 234.771 239.164C234.661 239.218 234.54 239.245 234.417 239.243C232.204 239.243 228.989 239.124 226.221 239.149C222.968 239.149 221.517 239.374 217.697 239.412C215.389 239.412 214.544 237.117 215.521 236.904C219.853 235.906 222.091 235.775 225.716 233.41C226.098 233.137 226.552 232.98 227.022 232.959Z" fill="#263238"/>
<path opacity="0.2" d="M225.496 220.667L226.291 227.34L231.915 227.29L231.126 220.617L225.496 220.667Z" fill="black"/>
<path d="M224.696 233.956C225.303 233.945 225.907 233.872 226.499 233.736C226.527 233.732 226.553 233.719 226.572 233.698C226.592 233.678 226.604 233.652 226.606 233.624C226.609 233.597 226.603 233.569 226.589 233.546C226.576 233.522 226.555 233.503 226.53 233.492C226.266 233.36 223.901 232.238 223.252 232.633C223.192 232.671 223.143 232.724 223.11 232.786C223.076 232.849 223.06 232.919 223.063 232.99C223.061 233.111 223.088 233.23 223.14 233.339C223.193 233.448 223.27 233.543 223.365 233.617C223.76 233.872 224.227 233.991 224.696 233.956ZM226.045 233.555C224.828 233.768 223.901 233.724 223.523 233.423C223.457 233.372 223.405 233.306 223.371 233.231C223.337 233.155 223.322 233.073 223.328 232.99C223.324 232.964 223.328 232.938 223.339 232.915C223.35 232.891 223.368 232.872 223.391 232.858C223.744 232.645 225.08 233.147 226.045 233.555Z" fill="#407BFF"/>
<path d="M226.473 233.775C226.503 233.772 226.531 233.761 226.555 233.743C226.574 233.729 226.588 233.709 226.596 233.687C226.604 233.665 226.605 233.641 226.599 233.618C226.599 233.517 226.158 231.109 224.821 231.26C224.468 231.297 224.367 231.479 224.348 231.617C224.254 232.244 225.697 233.461 226.416 233.762L226.473 233.775ZM224.935 231.517C225.742 231.517 226.145 232.828 226.284 233.398C225.54 232.984 224.556 232.031 224.613 231.655C224.613 231.655 224.613 231.548 224.853 231.523L224.935 231.517Z" fill="#407BFF"/>
<path d="M228.681 79.767L228.101 80.3942L227.559 80.9272C227.2 81.2784 226.828 81.6108 226.456 81.9369C225.716 82.5975 224.959 83.2247 224.186 83.8184C222.625 85.0522 220.982 86.1795 219.268 87.1924C218.404 87.7004 217.515 88.1833 216.614 88.6411C215.712 89.0989 214.76 89.494 213.802 89.8954C211.836 90.6752 209.789 91.2327 207.699 91.5573L207.232 91.6263C206.929 91.6651 206.623 91.684 206.318 91.6827C205.616 91.6762 204.921 91.5401 204.269 91.2813C203.622 91.0231 203.03 90.6466 202.522 90.1713C202.118 89.788 201.766 89.3537 201.476 88.8794C201.073 88.1912 200.769 87.4502 200.574 86.6781C200.421 86.0802 200.309 85.4725 200.24 84.8594C200.125 83.7994 200.093 82.7322 200.145 81.6673C200.189 80.6513 200.271 79.673 200.385 78.7134C200.624 76.7881 200.965 74.9506 201.381 73.0692C201.797 71.1877 202.27 69.4505 202.882 67.6318L207.024 68.4471C206.873 71.9717 206.702 75.584 206.816 78.9956C206.837 80.5798 207.005 82.1587 207.32 83.7118C207.382 83.9986 207.469 84.2797 207.579 84.5521C207.667 84.7653 207.774 84.8971 207.768 84.8406C207.731 84.7451 207.673 84.6592 207.598 84.5897C207.426 84.4247 207.225 84.2928 207.005 84.2009C206.778 84.1062 206.538 84.049 206.293 84.0316C206.179 84.0316 206.129 84.0316 206.059 84.0316H206.129L206.261 83.994C207.755 83.6124 209.207 83.0873 210.599 82.4261C212.055 81.7273 213.464 80.9354 214.817 80.0555C216.185 79.1524 217.534 78.1741 218.833 77.1393C219.464 76.6251 220.126 76.0857 220.725 75.5401L221.645 74.7123L222.086 74.3046L222.471 73.9409L228.681 79.767Z" fill="#FF8B7B"/>
<path d="M232.015 77.5531C231.801 71.6392 226.921 69.5822 220.805 73.6147C218.109 75.315 215.514 77.1682 213.031 79.1649L216.984 91.7955C216.984 91.7955 224.55 89.4061 228.926 84.7151C231.87 81.5292 232.091 79.5663 232.015 77.5531Z" fill="#263238"/>
<path opacity="0.2" d="M224.572 80.0742C224.572 80.0742 220.921 85.267 219.629 90.7858C221.424 90.0245 223.153 89.1184 224.799 88.0765L224.572 80.0742Z" fill="black"/>
<path d="M206.816 70.3218L208.935 65.5618L202.939 63.8184C202.939 63.8184 201.911 66.0949 202.497 70.002L206.816 70.3218Z" fill="#FF8B7B"/>
<path d="M209.57 59.9805L204.356 60.6013L202.938 63.8186L208.934 65.562L209.57 59.9805Z" fill="#FF8B7B"/>
<path d="M224.608 120.424C224.608 120.424 220.736 152.697 220.308 169.969C219.866 187.911 223.403 224.104 223.403 224.104L233.561 223.89C233.561 223.89 234.784 185.145 236.259 167.391C237.861 148.037 241.896 120.073 241.896 120.073L224.608 120.424Z" fill="#407BFF"/>
<path opacity="0.6" d="M224.608 120.424C224.608 120.424 220.736 152.697 220.308 169.969C219.866 187.911 223.403 224.104 223.403 224.104L233.561 223.89C233.561 223.89 234.784 185.145 236.259 167.391C237.861 148.037 241.896 120.073 241.896 120.073L224.608 120.424Z" fill="white"/>
<path opacity="0.2" d="M236.708 129.562C232.169 139.515 233.386 161.747 235.964 171.279C236.059 169.893 236.16 168.583 236.261 167.372C237.314 154.616 239.413 138.129 240.743 128.364C239.508 126.583 238.127 126.445 236.708 129.562Z" fill="black"/>
<path d="M234.809 224.323L222.867 224.561L221.984 220.616L234.664 220.585L234.809 224.323Z" fill="#407BFF"/>
<path d="M257.746 233.555L252.122 233.605L250.59 220.661L256.214 220.61L257.746 233.555Z" fill="#FF8B7B"/>
<path d="M252.109 232.959L258.256 232.902C258.369 232.905 258.479 232.943 258.569 233.01C258.66 233.078 258.727 233.171 258.761 233.279L260.249 238.239C260.287 238.355 260.297 238.478 260.278 238.598C260.258 238.718 260.211 238.831 260.139 238.929C260.067 239.027 259.972 239.107 259.863 239.161C259.754 239.216 259.633 239.244 259.511 239.243C257.292 239.243 254.083 239.124 251.315 239.149C248.061 239.149 246.605 239.374 242.79 239.412C240.483 239.412 239.638 237.117 240.615 236.904C244.94 235.906 247.179 235.775 250.81 233.41C251.19 233.137 251.641 232.98 252.109 232.959Z" fill="#263238"/>
<path opacity="0.2" d="M250.59 220.667L251.378 227.34L257.008 227.29L256.22 220.617L250.59 220.667Z" fill="black"/>
<path d="M249.79 233.956C250.397 233.944 251.001 233.871 251.593 233.736C251.62 233.732 251.645 233.719 251.664 233.698C251.682 233.677 251.693 233.651 251.694 233.624C251.698 233.597 251.693 233.57 251.681 233.546C251.668 233.523 251.649 233.504 251.625 233.492C251.353 233.36 248.989 232.238 248.346 232.633C248.285 232.67 248.235 232.723 248.202 232.786C248.169 232.848 248.153 232.919 248.157 232.99C248.155 233.11 248.181 233.229 248.233 233.337C248.284 233.446 248.359 233.542 248.453 233.617C248.85 233.871 249.319 233.99 249.79 233.956ZM251.139 233.555C249.922 233.768 248.995 233.724 248.617 233.423C248.552 233.371 248.5 233.305 248.465 233.23C248.43 233.155 248.413 233.073 248.415 232.99C248.412 232.964 248.416 232.938 248.427 232.915C248.438 232.891 248.456 232.872 248.478 232.858C248.831 232.645 250.155 233.147 251.139 233.555Z" fill="#407BFF"/>
<path d="M251.562 233.775C251.582 233.774 251.601 233.769 251.618 233.761C251.636 233.752 251.651 233.74 251.663 233.725C251.676 233.711 251.685 233.693 251.691 233.675C251.696 233.656 251.697 233.637 251.695 233.618C251.695 233.517 251.253 231.109 249.917 231.26C249.564 231.297 249.463 231.479 249.437 231.617C249.349 232.244 250.793 233.461 251.512 233.762L251.562 233.775ZM250.03 231.517C250.831 231.517 251.241 232.828 251.379 233.398C250.635 232.984 249.646 232.031 249.702 231.655C249.702 231.655 249.702 231.548 249.942 231.523L250.03 231.517Z" fill="#407BFF"/>
<path d="M234.52 120.212C234.52 120.212 237.325 154.936 239.374 172.07C241.499 189.893 248.498 224.085 248.498 224.085L258.655 223.872C258.655 223.872 255.868 185.052 254.79 167.266C253.611 147.856 253.308 119.785 253.308 119.785L234.52 120.212Z" fill="#407BFF"/>
<path opacity="0.6" d="M234.52 120.212C234.52 120.212 237.325 154.936 239.374 172.07C241.499 189.893 248.498 224.085 248.498 224.085L258.655 223.872C258.655 223.872 255.868 185.052 254.79 167.266C253.611 147.856 253.308 119.785 253.308 119.785L234.52 120.212Z" fill="white"/>
<path d="M259.902 224.323L247.955 224.561L247.078 220.616L259.757 220.585L259.902 224.323Z" fill="#407BFF"/>
<path d="M223.909 72.0659C223.909 72.0659 219.754 87.4058 224.609 120.425C233.676 120.23 248.902 119.879 253.309 119.798C253.423 115.201 250.012 92.6612 254.003 70.9308C251.132 70.4376 248.228 70.1567 245.315 70.0904C241.051 69.9356 236.781 70.0277 232.528 70.3664C229.615 70.7092 226.734 71.2774 223.909 72.0659Z" fill="#263238"/>
<path opacity="0.2" d="M252.264 86.3958L247.566 82.5264C247.875 85.5492 250.624 92.9557 252.074 96.706C252.049 93.4198 252.081 89.9517 252.264 86.3958Z" fill="black"/>
<path d="M235.459 80.9588L230.333 91.0495C230.225 91.2614 230.187 91.502 230.225 91.7366C230.263 91.9713 230.375 92.1879 230.545 92.3552C230.714 92.5226 230.933 92.6321 231.169 92.6679C231.406 92.7038 231.647 92.6641 231.859 92.5546L235.207 90.7234C235.389 90.626 235.595 90.5814 235.801 90.5948C236.007 90.6081 236.206 90.6787 236.374 90.7986L239.671 93.163C239.86 93.3 240.089 93.3728 240.323 93.3705C240.557 93.3683 240.785 93.2911 240.971 93.1504C241.158 93.0098 241.294 92.8131 241.36 92.5894C241.425 92.3658 241.417 92.1271 241.336 91.9087L237.483 81.1344C237.416 80.9294 237.29 80.7486 237.121 80.6145C236.951 80.4804 236.746 80.3989 236.53 80.3801C236.314 80.3614 236.097 80.4063 235.907 80.5092C235.717 80.6121 235.561 80.7685 235.459 80.9588Z" fill="white"/>
<path d="M243.739 55.7666C243.021 59.8807 242.378 67.3938 245.316 70.0592C245.316 70.0592 244.458 73.7844 236.634 75.0763C231.375 73.3956 232.529 70.3602 232.529 70.3602C237.094 69.1686 236.899 65.7883 236.035 62.6275L243.739 55.7666Z" fill="#FF8B7B"/>
<path opacity="0.2" d="M240.596 58.5566L236.031 62.5954C236.244 63.3318 236.391 64.0851 236.473 64.8469C238.225 64.5584 240.59 62.5892 240.735 60.7642C240.824 60.0261 240.777 59.2779 240.596 58.5566Z" fill="black"/>
<path d="M246.24 50.7049C244.721 56.0481 244.109 59.2528 240.755 61.4416C235.711 64.7278 229.526 60.8144 229.406 55.1137C229.293 49.9962 231.789 42.1131 237.602 41.1096C238.879 40.8843 240.193 40.987 241.419 41.408C242.644 41.829 243.742 42.5544 244.607 43.5153C245.472 44.4763 246.076 45.641 246.362 46.8992C246.648 48.1574 246.606 49.4673 246.24 50.7049Z" fill="#FF8B7B"/>
<path d="M243.006 53.9785C242.3 52.2726 241.789 46.6535 244.734 45.2737C247.678 43.894 250.736 47.2618 249.961 48.8547C248.769 51.3257 244.646 57.9295 243.006 53.9785Z" fill="#263238"/>
<path d="M244.765 47.2556C244.04 45.3742 235.396 44.3081 234.186 42.2824C232.748 39.8742 238.643 39.5857 242.697 40.8086C246.26 41.8873 248.637 42.9284 248.221 45.5624C247.987 47.055 244.765 47.2556 244.765 47.2556Z" fill="#263238"/>
<path d="M246.645 45.3186C246.645 45.3186 248.536 45.8328 249.57 44.4531C249.242 45.8203 247.634 47.2 246.645 45.3186Z" fill="#263238"/>
<path d="M237.987 39.517C235.389 37.5102 231.852 39.8682 232.186 42.4834C232.52 45.0986 241.278 47.0866 241.278 47.0866C241.278 47.0866 241.435 42.1824 237.987 39.517Z" fill="#263238"/>
<path d="M232.191 42.496C232.589 44.3272 233.932 45.7634 236.649 46.8295C235.076 45.6727 233.885 44.077 233.225 42.2451L232.191 42.496Z" fill="#263238"/>
<path d="M237.648 50.436C237.554 50.8813 237.245 51.1886 236.955 51.1259C236.665 51.0632 236.507 50.6493 236.602 50.2103C236.696 49.7713 237.011 49.464 237.302 49.5267C237.592 49.5894 237.749 50.0221 237.648 50.436Z" fill="#263238"/>
<path d="M232.639 49.3569C232.538 49.7959 232.229 50.1032 231.939 50.0405C231.649 49.9777 231.491 49.5701 231.586 49.1311C231.681 48.6921 231.996 48.3848 232.286 48.4413C232.576 48.4977 232.734 48.9179 232.639 49.3569Z" fill="#263238"/>
<path d="M234.187 49.9209C233.364 51.1546 232.373 52.2689 231.242 53.2322C231.873 54.129 233.279 54.0851 233.279 54.0851L234.187 49.9209Z" fill="#FF5652"/>
<path d="M234.3 55.5848C234.892 55.7311 235.511 55.7328 236.104 55.5897C236.696 55.4467 237.246 55.1631 237.705 54.7633C237.717 54.751 237.727 54.7364 237.734 54.7202C237.741 54.7041 237.744 54.6867 237.744 54.6692C237.744 54.6517 237.741 54.6343 237.734 54.6182C237.727 54.602 237.717 54.5874 237.705 54.5751C237.679 54.5513 237.645 54.5381 237.61 54.5381C237.575 54.5381 237.541 54.5513 237.515 54.5751C237.085 54.9355 236.576 55.1907 236.028 55.3203C235.481 55.4499 234.911 55.4503 234.363 55.3214C234.328 55.3139 234.291 55.3206 234.261 55.34C234.231 55.3595 234.21 55.39 234.202 55.4249C234.195 55.4598 234.201 55.4963 234.221 55.5263C234.24 55.5563 234.271 55.5773 234.306 55.5848H234.3Z" fill="#263238"/>
<path d="M239.508 49.1564C239.556 49.166 239.606 49.1623 239.653 49.1457C239.699 49.1291 239.74 49.1002 239.771 49.0621C239.803 49.0241 239.823 48.9783 239.83 48.9297C239.836 48.8811 239.83 48.8315 239.811 48.7864C239.64 48.4001 239.38 48.0598 239.051 47.7937C238.722 47.5275 238.334 47.3433 237.919 47.2561C237.849 47.2471 237.778 47.2657 237.722 47.3078C237.665 47.35 237.627 47.4125 237.616 47.4819C237.611 47.5161 237.613 47.551 237.621 47.5846C237.629 47.6182 237.644 47.6499 237.664 47.6779C237.685 47.7058 237.71 47.7295 237.74 47.7475C237.77 47.7656 237.803 47.7776 237.837 47.7829C238.164 47.8544 238.469 48.0028 238.727 48.2155C238.985 48.4283 239.188 48.6992 239.319 49.0059C239.336 49.0438 239.363 49.0772 239.396 49.1033C239.428 49.1294 239.467 49.1476 239.508 49.1564Z" fill="#263238"/>
<path d="M230.814 47.1683C230.863 47.1819 230.916 47.1802 230.964 47.1634C231.013 47.1466 231.055 47.1155 231.085 47.0742C231.285 46.8078 231.544 46.5918 231.843 46.4437C232.142 46.2955 232.472 46.2193 232.806 46.2213C232.876 46.228 232.946 46.2066 233.001 46.1619C233.055 46.1172 233.09 46.0529 233.096 45.983C233.103 45.9131 233.081 45.8435 233.037 45.7894C232.992 45.7353 232.927 45.7012 232.857 45.6945C232.434 45.682 232.014 45.7713 231.633 45.9547C231.252 46.1381 230.921 46.4103 230.669 46.7481C230.647 46.7749 230.63 46.806 230.62 46.8394C230.61 46.8728 230.607 46.9079 230.611 46.9425C230.615 46.9771 230.626 47.0105 230.644 47.0407C230.661 47.0709 230.685 47.0972 230.713 47.1181C230.742 47.1433 230.776 47.1605 230.814 47.1683Z" fill="#263238"/>
<path d="M255.378 75.208C256.526 77.2023 257.484 79.1339 258.48 81.122C259.476 83.11 260.372 85.1106 261.223 87.1551C262.074 89.1995 262.9 91.2754 263.619 93.4265C264.366 95.5717 264.997 97.7552 265.51 99.9676L265.895 101.68C266.063 102.484 266.135 103.305 266.109 104.126C266.056 105.651 265.716 107.152 265.107 108.553C264.036 110.913 262.513 113.044 260.624 114.825C258.938 116.443 257.102 117.899 255.139 119.171C254.186 119.798 253.203 120.375 252.213 120.927C251.223 121.479 250.24 121.987 249.136 122.469L247.043 118.826C247.806 118.199 248.644 117.571 249.426 116.894C250.208 116.217 250.971 115.527 251.728 114.837C253.188 113.489 254.544 112.032 255.782 110.478C256.882 109.146 257.736 107.63 258.304 106.001C258.499 105.394 258.576 104.755 258.531 104.119C258.512 103.864 258.463 103.611 258.386 103.367L257.957 101.962C256.683 98.0653 255.167 94.2512 253.417 90.5416C252.553 88.6602 251.633 86.7788 250.712 84.8973C249.792 83.0159 248.821 81.1345 247.882 79.3471L255.378 75.208Z" fill="#FF8B7B"/>
<path d="M254.216 70.962C259.474 72.0908 263.131 85.7374 263.131 85.7374L253.73 94.2227C250.741 90.9152 248.39 87.0885 246.795 82.9341C244.304 76.1045 248.592 69.7453 254.216 70.962Z" fill="#263238"/>
<path d="M248.183 118.18L242.137 118.242L245.92 124.307C245.92 124.307 250.226 123.247 250.611 121.096L248.183 118.18Z" fill="#FF8B7B"/>
<path d="M238.371 121.823L241.706 126.69L245.887 124.307L242.135 118.242L238.371 121.823Z" fill="#FF8B7B"/>
<path d="M247.891 55.5966C247.22 56.826 246.086 57.7413 244.739 58.1428C242.948 58.6633 242.034 57.0766 242.513 55.3896C242.948 53.8719 244.405 51.771 246.195 51.9905C247.986 52.21 248.692 54.0852 247.891 55.5966Z" fill="#FF8B7B"/>
<path d="M229.351 85.3105L118.031 93.294C115.714 93.4738 113.562 94.5552 112.042 96.3034C110.521 98.0516 109.755 100.326 109.91 102.632L113.693 154.823C113.872 157.131 114.961 159.275 116.721 160.789C118.482 162.303 120.772 163.064 123.094 162.907L129.399 162.455C129.857 162.422 130.309 162.572 130.657 162.87C131.004 163.169 131.219 163.593 131.252 164.048L131.959 173.719C131.97 173.906 132.038 174.086 132.153 174.234C132.268 174.383 132.425 174.494 132.604 174.554C132.782 174.613 132.975 174.618 133.157 174.567C133.339 174.517 133.501 174.413 133.623 174.271L144.178 162.135C144.621 161.627 145.249 161.314 145.924 161.264L234.395 154.923C236.713 154.745 238.867 153.664 240.388 151.916C241.91 150.167 242.677 147.893 242.522 145.585L238.739 93.3944C238.56 91.0887 237.473 88.9464 235.716 87.4328C233.958 85.9193 231.671 85.1566 229.351 85.3105Z" fill="#CFE1E9"/>
<path d="M134.293 117.251L140.308 116.819L140.8 123.592L147.369 123.121L146.878 116.348L152.918 115.909L154.324 135.263L148.284 135.696L147.716 127.869L141.146 128.345L141.714 136.172L135.705 136.605L134.293 117.251Z" fill="white"/>
<path opacity="0.2" d="M118.031 93.294C115.714 93.4738 113.562 94.5552 112.042 96.3034C110.521 98.0517 109.755 100.326 109.91 102.632L113.693 154.823C113.872 157.131 114.961 159.275 116.721 160.789C118.482 162.303 120.772 163.064 123.094 162.907L124.021 162.838C125.561 162.727 127.021 162.114 128.174 161.093C129.328 160.073 130.111 158.702 130.401 157.194L143.081 91.4941L118.031 93.294Z" fill="black"/>
<path d="M173.194 128.201L162.362 128.979C162.445 129.677 162.74 130.333 163.207 130.86C163.475 131.141 163.805 131.356 164.17 131.488C164.535 131.621 164.927 131.668 165.313 131.625C165.844 131.588 166.356 131.415 166.801 131.124C167.149 130.862 167.446 130.539 167.677 130.17L173.037 130.277C172.454 131.591 171.507 132.714 170.307 133.513C169.205 134.207 167.579 134.625 165.427 134.767C163.922 134.942 162.397 134.781 160.963 134.297C159.813 133.817 158.826 133.018 158.119 131.995C157.309 130.831 156.844 129.465 156.776 128.051C156.664 127.069 156.759 126.074 157.057 125.131C157.354 124.188 157.847 123.318 158.504 122.576C159.815 121.121 161.707 120.303 164.178 120.124C165.814 119.93 167.473 120.124 169.02 120.688C170.205 121.191 171.203 122.048 171.877 123.14C172.648 124.496 173.08 126.017 173.138 127.574L173.194 128.201ZM167.52 126.019C167.443 125.203 167.09 124.438 166.517 123.849C166.229 123.628 165.898 123.469 165.546 123.381C165.193 123.292 164.826 123.277 164.467 123.336C164.108 123.395 163.765 123.526 163.46 123.722C163.154 123.918 162.892 124.175 162.69 124.476C162.354 125.066 162.184 125.736 162.198 126.414L167.52 126.019Z" fill="white"/>
<path d="M174.863 114.334L180.279 113.945L181.685 133.293L176.269 133.681L174.863 114.334Z" fill="white"/>
<path d="M183.91 113.683L189.326 113.294L190.732 132.641L185.322 133.03L183.91 113.683Z" fill="white"/>
<path d="M193.014 125.473C192.912 124.491 193.018 123.499 193.327 122.561C193.635 121.623 194.139 120.761 194.805 120.029C196.154 118.536 198.065 117.7 200.536 117.52C203.352 117.32 205.542 117.98 207.106 119.502C208.405 120.865 209.155 122.654 209.214 124.531C209.273 126.407 208.638 128.24 207.427 129.681C206.091 131.161 204.153 131.997 201.614 132.189C199.642 132.425 197.65 131.958 195.99 130.872C195.108 130.263 194.379 129.458 193.863 128.521C193.346 127.584 193.056 126.54 193.014 125.473ZM198.43 125.071C198.42 126.061 198.762 127.023 199.395 127.787C199.65 128.047 199.959 128.249 200.301 128.378C200.642 128.507 201.008 128.562 201.373 128.536C201.737 128.511 202.092 128.408 202.413 128.233C202.733 128.058 203.011 127.816 203.228 127.523C203.738 126.65 203.929 125.629 203.77 124.632C203.777 123.662 203.44 122.721 202.818 121.973C202.576 121.708 202.275 121.502 201.939 121.372C201.603 121.241 201.242 121.19 200.883 121.221C200.508 121.238 200.143 121.341 199.815 121.521C199.487 121.702 199.205 121.955 198.991 122.262C198.483 123.105 198.293 124.101 198.455 125.071H198.43Z" fill="white"/>
<path d="M210.922 111.738L216.691 111.324L217.012 115.714L216.54 124.651L212.971 124.908L211.237 116.128L210.922 111.738ZM212.183 126.338L217.567 125.949L217.914 130.69L212.523 131.073L212.183 126.338Z" fill="white"/>
<path d="M116.493 76.1108C116.464 77.0289 116.513 77.9477 116.638 78.8577C110.924 80.7555 104.832 81.2356 98.8893 80.2562C99.1745 79.1835 99.3478 78.0844 99.4063 76.9763C99.2075 78.0921 98.8172 79.1655 98.2525 80.1496C97.1302 79.9364 96.4997 79.7545 96.4997 79.7545C96.4997 79.7545 97.6472 73.5834 95.5792 69.0931C93.5111 64.6028 94.5451 62.0942 96.1088 61.3855C99.009 52.5177 109.91 53.9163 113.599 57.5161C118.277 62.0817 118.302 74.9443 119.134 77.8856C118.447 78.1804 117.773 78.4501 117.098 78.6884C116.76 77.8666 116.556 76.9965 116.493 76.1108Z" fill="#263238"/>
<path d="M121.002 89.9141L121.569 91.7014C121.777 92.3286 121.985 92.9557 122.2 93.5515C122.622 94.8058 123.063 96.0601 123.536 97.2642C124.009 98.4683 124.463 99.7351 124.955 100.964L125.686 102.846L125.869 103.31L125.913 103.416C125.835 103.349 125.746 103.295 125.648 103.26C125.51 103.209 125.453 103.26 125.541 103.26C125.693 103.259 125.844 103.236 125.989 103.191C126.482 103.035 126.956 102.825 127.401 102.564C128.476 101.94 129.505 101.24 130.478 100.469C131.499 99.6787 132.502 98.832 133.485 97.9603C134.469 97.0886 135.459 96.1792 136.411 95.2887L138.347 96.9192C137.54 98.0732 136.688 99.1268 135.825 100.199C134.961 101.272 133.99 102.275 132.994 103.272C131.968 104.313 130.852 105.262 129.658 106.107C128.975 106.583 128.242 106.982 127.471 107.298C126.981 107.494 126.468 107.624 125.945 107.687C125.234 107.775 124.513 107.678 123.851 107.405C123.131 107.099 122.516 106.589 122.086 105.938C121.992 105.793 121.903 105.649 121.834 105.517L121.664 105.179L121.437 104.721C121.14 104.094 120.806 103.467 120.548 102.877C119.974 101.623 119.4 100.369 118.877 99.1142C118.354 97.86 117.843 96.568 117.357 95.2761C117.13 94.649 116.903 93.9654 116.689 93.3069C116.475 92.6484 116.267 92.0024 116.059 91.2311L121.002 89.9141Z" fill="#FFC3BD"/>
<path d="M119.507 84.3455C121.682 84.8974 123.201 93.7902 123.201 93.7902L117.212 97.8416C117.212 97.8416 111.474 88.8672 113.145 86.4903C114.885 84.0194 116.335 83.5427 119.507 84.3455Z" fill="#407BFF"/>
<path d="M119.507 84.3455C121.682 84.8974 123.201 93.7902 123.201 93.7902L117.212 97.8416C117.212 97.8416 111.474 88.8672 113.145 86.4903C114.885 84.0194 116.335 83.5427 119.507 84.3455Z" fill="#407BFF"/>
<path opacity="0.4" d="M119.507 84.3455C121.682 84.8974 123.201 93.7902 123.201 93.7902L117.212 97.8416C117.212 97.8416 111.474 88.8672 113.145 86.4903C114.885 84.0194 116.335 83.5427 119.507 84.3455Z" fill="white"/>
<path opacity="0.3" d="M119.309 86.333L120.98 95.2949L117.613 97.5651L119.309 86.333Z" fill="black"/>
<path d="M136.309 95.5023L138.307 90.7109L140.772 95.5023C140.772 95.5023 139.171 97.8854 137.059 97.3022L136.309 95.5023Z" fill="#FFC3BD"/>
<path d="M140.508 90.2148L143.673 91.4817L140.772 95.5017L138.301 90.7103L140.508 90.2148Z" fill="#FFC3BD"/>
<path d="M107.746 234.057H113.023L113.376 221.909H108.099L107.746 234.057Z" fill="#FFC3BD"/>
<path d="M72.3633 218.409L77.2118 220.466L83.5608 209.955L78.706 207.898L72.3633 218.409Z" fill="#FFC3BD"/>
<path d="M78.1452 219.751L73.1012 216.665C73.015 216.61 72.9113 216.589 72.8101 216.605C72.7088 216.621 72.6172 216.674 72.5527 216.753L69.52 220.372C69.4446 220.466 69.3904 220.576 69.3611 220.693C69.3318 220.811 69.328 220.933 69.3501 221.052C69.3722 221.17 69.4197 221.283 69.4892 221.382C69.5587 221.481 69.6488 221.564 69.7533 221.626C71.5313 222.673 72.4392 223.087 74.6585 224.442C76.0267 225.282 77.9308 226.637 79.816 227.791C81.7012 228.945 82.9685 227.164 82.2686 226.505C79.2107 223.602 79.299 222.222 78.7252 220.503C78.6299 220.191 78.4238 219.924 78.1452 219.751Z" fill="#263238"/>
<path d="M113.201 233.448H107.281C107.179 233.447 107.08 233.483 107.002 233.548C106.925 233.614 106.873 233.705 106.858 233.806L106.184 238.472C106.167 238.591 106.177 238.713 106.212 238.829C106.248 238.944 106.308 239.051 106.389 239.141C106.47 239.231 106.57 239.302 106.681 239.35C106.793 239.398 106.913 239.422 107.035 239.419C109.103 239.387 110.099 239.262 112.709 239.262C114.311 239.262 117.627 239.431 119.84 239.431C122.053 239.431 122.167 237.255 121.246 237.054C117.116 236.17 115.49 234.953 114.096 233.793C113.849 233.574 113.531 233.452 113.201 233.448Z" fill="#263238"/>
<path opacity="0.2" d="M113.372 221.915L113.195 228.174H107.918L108.101 221.915H113.372Z" fill="black"/>
<path opacity="0.2" d="M78.7059 207.904L83.5544 209.955L80.2821 215.374L75.4336 213.317L78.7059 207.904Z" fill="black"/>
<path d="M119.507 84.3454C119.507 84.3454 122.029 85.2234 116.985 115.997H95.5486C95.908 107.33 95.9206 101.987 91.7656 84.1949C94.7631 83.5787 97.8017 83.1805 100.857 83.0033C104.096 82.771 107.347 82.771 110.586 83.0033C114.772 83.3796 119.507 84.3454 119.507 84.3454Z" fill="#407BFF"/>
<path opacity="0.4" d="M119.507 84.3454C119.507 84.3454 122.029 85.2234 116.985 115.997H95.5486C95.908 107.33 95.9206 101.987 91.7656 84.1949C94.7631 83.5787 97.8017 83.1805 100.857 83.0033C104.096 82.771 107.347 82.771 110.586 83.0033C114.772 83.3796 119.507 84.3454 119.507 84.3454Z" fill="white"/>
<path d="M100.869 82.9968C104.108 82.7706 107.359 82.7706 110.597 82.9968C111.121 83.0469 111.657 83.1034 112.186 83.1661C112.407 83.4957 112.548 83.8712 112.599 84.2638C112.651 84.6563 112.611 85.0553 112.483 85.4301C111.795 87.1171 109.33 87.3115 107.54 87.3115C100.913 87.3115 99.7908 83.4609 99.7466 83.2978L99.6836 83.0658L100.869 82.9968Z" fill="white"/>
<path d="M101.832 72.1094C102.462 75.2451 103.061 80.927 100.867 83.0028C100.867 83.0028 101.725 86.1385 107.538 86.1385C113.931 86.1385 110.596 83.0028 110.596 83.0028C107.103 82.175 107.197 79.5974 107.803 77.183L101.832 72.1094Z" fill="#FFC3BD"/>
<path d="M102.469 69.8955C101.718 72.3602 102.759 78.1926 104.303 80.4503C101.258 78.7131 100.23 73.42 100.23 73.42L102.469 69.8955Z" fill="#263238"/>
<path opacity="0.2" d="M104.267 74.1797L107.804 77.1774C107.649 77.7394 107.548 78.3148 107.501 78.8958C106.171 78.7014 104.349 77.2464 104.198 75.8604C104.119 75.3006 104.143 74.7313 104.267 74.1797Z" fill="black"/>
<path d="M98.9453 66.5534C100.168 71.6144 100.572 73.7843 103.636 75.9605C108.245 79.2279 114.228 76.6316 114.55 71.3071C114.84 66.5158 112.797 59.0465 107.406 57.8926C106.219 57.6317 104.984 57.6771 103.819 58.0245C102.653 58.3718 101.597 59.0096 100.749 59.8773C99.9015 60.745 99.2908 61.8138 98.9751 62.9822C98.6594 64.1506 98.6491 65.3799 98.9453 66.5534Z" fill="#FFC3BD"/>
<path d="M116.991 115.997C116.991 115.997 121.146 156.397 120.774 172.39C120.414 189.021 114.286 226.951 114.286 226.951H107.161C107.161 226.951 108.29 189.981 107.659 173.644C106.972 155.833 101.285 115.984 101.285 115.984L116.991 115.997Z" fill="#407BFF"/>
<path opacity="0.4" d="M116.991 115.997C116.991 115.997 121.146 156.397 120.774 172.39C120.414 189.021 114.286 226.951 114.286 226.951H107.161C107.161 226.951 108.29 189.981 107.659 173.644C106.972 155.833 101.285 115.984 101.285 115.984L116.991 115.997Z" fill="black"/>
<path d="M106.567 227.214H114.927L115.545 224.561L106.176 224.235L106.567 227.214Z" fill="#407BFF"/>
<path opacity="0.2" d="M107.754 126.05C113.013 136.573 108.807 155.77 106.947 162.913C105.995 152.189 104.387 139.082 103.133 129.443C103.927 124.024 105.327 121.196 107.754 126.05Z" fill="black"/>
<path d="M111.334 115.997C111.334 115.997 106.479 158.016 102.816 171.48C98.472 187.491 81.9342 214.753 81.9342 214.753L75.3203 211.956C75.3203 211.956 85.5532 181 88.8822 172.565C95.9753 154.566 89.9036 127.743 95.5718 115.997H111.334Z" fill="#407BFF"/>
<path opacity="0.4" d="M111.334 115.997C111.334 115.997 106.479 158.016 102.816 171.48C98.472 187.491 81.9342 214.753 81.9342 214.753L75.3203 211.956C75.3203 211.956 85.5532 181 88.8822 172.565C95.9753 154.566 89.9036 127.743 95.5718 115.997H111.334Z" fill="black"/>
<path d="M74.4062 211.975L82.6153 215.449L84.5887 213.254L75.1187 208.732L74.4062 211.975Z" fill="#407BFF"/>
<path d="M107.034 66.6224C107.11 67.0363 107.387 67.3373 107.665 67.2872C107.942 67.237 108.1 66.8607 108.024 66.4468C107.949 66.0329 107.671 65.7318 107.394 65.7757C107.116 65.8196 106.927 66.2022 107.034 66.6224Z" fill="#263238"/>
<path d="M111.737 65.7942C111.807 66.2082 112.09 66.5092 112.368 66.459C112.645 66.4089 112.809 66.0326 112.733 65.6186C112.658 65.2047 112.38 64.9037 112.103 64.9476C111.825 64.9915 111.662 65.3741 111.737 65.7942Z" fill="#263238"/>
<path d="M111.984 64.9977L112.936 64.5273C112.936 64.5273 112.558 65.3991 111.984 64.9977Z" fill="#263238"/>
<path d="M110.609 66.7285C111.151 67.6136 111.813 68.4199 112.577 69.1242C112.389 69.3126 112.163 69.4584 111.914 69.5515C111.665 69.6446 111.398 69.6828 111.133 69.6635L110.609 66.7285Z" fill="#ED847E"/>
<path d="M109.237 71.6266C109.475 71.6262 109.714 71.6052 109.949 71.5639C109.967 71.5632 109.985 71.5586 110.001 71.5506C110.017 71.5425 110.031 71.5311 110.042 71.5171C110.054 71.5031 110.062 71.4869 110.066 71.4695C110.071 71.4522 110.071 71.4341 110.068 71.4164C110.065 71.3988 110.058 71.382 110.048 71.3673C110.038 71.3525 110.024 71.3401 110.009 71.3309C109.993 71.3217 109.976 71.3159 109.958 71.3139C109.94 71.3119 109.922 71.3138 109.905 71.3193C109.386 71.4222 108.849 71.4014 108.34 71.2586C107.83 71.1159 107.362 70.8551 106.973 70.4978C106.95 70.4748 106.918 70.4619 106.885 70.4619C106.852 70.4619 106.82 70.4748 106.797 70.4978C106.784 70.5089 106.775 70.5225 106.768 70.5376C106.761 70.5527 106.758 70.5691 106.758 70.5856C106.758 70.6021 106.761 70.6184 106.768 70.6335C106.775 70.6486 106.784 70.6622 106.797 70.6734C107.455 71.2942 108.33 71.636 109.237 71.6266Z" fill="#263238"/>
<path d="M100.729 63.587C100.866 64.9206 101.077 66.2458 101.359 67.5568C101.359 67.5568 104.512 63.587 105.035 61.461C104.91 62.298 104.666 63.1131 104.31 63.8817C104.31 63.8817 108.553 62.9598 108.969 60.1753C108.962 61.4219 108.822 62.6643 108.553 63.8817C108.553 63.8817 112.601 62.3013 112.229 59.6297C111.857 56.9581 105.64 55.9233 102.771 56.8264C99.9026 57.7295 97.0969 60.6582 97.9418 64.6845C98.7867 68.7107 100.407 70.2221 100.407 70.2221C100.407 70.2221 99.2406 66.1645 100.729 63.587Z" fill="#263238"/>
<path d="M98.7229 70.3663C99.1121 71.2953 99.8558 72.0328 100.791 72.4171C102.052 72.9188 102.802 71.8464 102.582 70.6046C102.386 69.4821 101.497 67.8766 100.192 67.9017C99.9064 67.9142 99.6284 67.9974 99.3832 68.1436C99.138 68.2897 98.9333 68.4944 98.7875 68.7389C98.6417 68.9835 98.5595 69.2604 98.5482 69.5445C98.5369 69.8286 98.597 70.1111 98.7229 70.3663Z" fill="#FFC3BD"/>
<path d="M101.491 61.6553C100.86 64.1638 102.172 69.9335 103.824 72.1097C100.671 70.5231 99.4102 65.2802 99.4102 65.2802L101.491 61.6553Z" fill="#263238"/>
<path d="M105.306 65.1926C105.339 65.1829 105.369 65.1668 105.395 65.1452C105.421 65.1237 105.442 65.0971 105.458 65.0672C105.591 64.7843 105.789 64.5367 106.037 64.3449C106.284 64.153 106.574 64.0223 106.883 63.9634C106.948 63.9541 107.007 63.9203 107.048 63.869C107.089 63.8177 107.109 63.7528 107.103 63.6875C107.1 63.6547 107.09 63.6229 107.075 63.5939C107.059 63.565 107.037 63.5395 107.011 63.519C106.986 63.4985 106.956 63.4834 106.924 63.4746C106.892 63.4659 106.859 63.4636 106.826 63.468C106.435 63.5355 106.066 63.6955 105.75 63.9345C105.434 64.1735 105.18 64.4845 105.01 64.8414C104.989 64.885 104.98 64.9339 104.986 64.982C104.992 65.0302 105.012 65.0756 105.043 65.1128C105.075 65.15 105.116 65.1773 105.163 65.1915C105.21 65.2056 105.259 65.206 105.306 65.1926Z" fill="#263238"/>
<path d="M113.459 63.2479C113.49 63.2493 113.522 63.2438 113.551 63.2319C113.581 63.22 113.607 63.2019 113.629 63.1789C113.675 63.1321 113.701 63.069 113.701 63.0033C113.701 62.9377 113.675 62.8746 113.629 62.8277C113.36 62.5383 113.027 62.3159 112.655 62.1787C112.284 62.0414 111.885 61.993 111.492 62.0375C111.459 62.0436 111.428 62.056 111.4 62.0741C111.372 62.0922 111.348 62.1157 111.329 62.1431C111.31 62.1705 111.297 62.2013 111.29 62.2338C111.284 62.2663 111.283 62.2998 111.29 62.3323C111.304 62.3957 111.341 62.4514 111.395 62.4876C111.45 62.5239 111.516 62.5379 111.58 62.5267C111.89 62.4922 112.204 62.531 112.497 62.64C112.789 62.749 113.052 62.925 113.263 63.1539C113.287 63.183 113.316 63.2066 113.35 63.2229C113.384 63.2392 113.421 63.2477 113.459 63.2479Z" fill="#263238"/>
<path d="M94.3817 91.6393C93.5053 94.3925 92.6668 97.2836 91.9543 100.131C91.2372 102.942 90.7127 105.797 90.3844 108.679L90.334 109.206C90.334 109.375 90.334 109.413 90.334 109.563C90.3409 109.859 90.3641 110.154 90.4033 110.447C90.4836 111.134 90.5994 111.817 90.7501 112.492C91.0464 113.89 91.3806 115.333 91.8093 116.763C92.2381 118.192 92.6037 119.647 93.0325 121.09L94.2935 125.417L91.9543 126.377C90.5168 123.642 89.2684 120.858 88.102 117.986C87.5409 116.543 86.9923 115.088 86.5384 113.552C86.3114 112.787 86.097 112.003 85.9079 111.15C85.8181 110.698 85.7549 110.242 85.7188 109.783C85.7188 109.55 85.7188 109.206 85.7188 108.999V108.371C85.7722 106.773 85.9196 105.18 86.1601 103.599C86.3682 102.031 86.6771 100.501 87.0113 98.9769C87.6673 95.9247 88.5095 92.9152 89.5332 89.9648L94.3817 91.6393Z" fill="#FFC3BD"/>
<path d="M91.7771 84.1945C89.6334 84.8216 87.0547 92.1905 87.0547 92.1905L95.3772 98.1107C95.3772 98.1107 98.4162 91.9773 97.5146 89.2179C96.5751 86.3455 94.2297 83.4544 91.7771 84.1945Z" fill="#407BFF"/>
<path opacity="0.4" d="M91.7771 84.1945C89.6334 84.8216 87.0547 92.1905 87.0547 92.1905L95.3772 98.1107C95.3772 98.1107 98.4162 91.9773 97.5146 89.2179C96.5751 86.3455 94.2297 83.4544 91.7771 84.1945Z" fill="white"/>
<path d="M80.2769 221.746C80.3794 221.71 80.4727 221.652 80.5501 221.576C80.6275 221.5 80.6871 221.408 80.7246 221.307C80.761 221.241 80.7801 221.168 80.7801 221.093C80.7801 221.019 80.761 220.945 80.7246 220.88C80.3463 220.328 78.4359 220.372 78.2026 220.378C78.1784 220.379 78.1548 220.386 78.1347 220.399C78.1146 220.413 78.0988 220.432 78.0891 220.454C78.0768 220.473 78.0703 220.496 78.0703 220.519C78.0703 220.543 78.0768 220.566 78.0891 220.585C78.5872 221.081 79.5203 221.89 80.176 221.764L80.2769 221.746ZM78.5052 220.604C79.2681 220.604 80.2895 220.711 80.4913 221.005C80.5085 221.034 80.5176 221.066 80.5176 221.1C80.5176 221.133 80.5085 221.165 80.4913 221.194C80.4634 221.269 80.4171 221.337 80.3567 221.391C80.2962 221.444 80.2233 221.482 80.1445 221.501C79.7977 221.589 79.1925 221.231 78.5052 220.604Z" fill="#407BFF"/>
<path d="M79.066 220.472C79.646 220.29 80.2639 219.97 80.3963 219.613C80.4292 219.52 80.4297 219.419 80.3977 219.325C80.3656 219.232 80.303 219.152 80.2198 219.099C80.1463 219.038 80.0599 218.994 79.9671 218.971C79.8742 218.949 79.7774 218.947 79.6839 218.967C78.9336 219.099 78.1265 220.378 78.095 220.435C78.084 220.454 78.0781 220.475 78.0781 220.497C78.0781 220.519 78.084 220.541 78.095 220.56C78.1064 220.578 78.1221 220.594 78.1408 220.605C78.1594 220.616 78.1805 220.622 78.2022 220.623C78.4959 220.614 78.7869 220.564 79.066 220.472ZM79.646 219.218H79.728C79.7873 219.206 79.8486 219.207 79.9074 219.221C79.9663 219.235 80.0213 219.262 80.0685 219.299C80.1946 219.4 80.182 219.475 80.163 219.531C80.0369 219.876 79.0786 220.29 78.4418 220.372C78.7315 219.89 79.1478 219.495 79.646 219.23V219.218Z" fill="#407BFF"/>
<path d="M115.181 234.364C115.626 234.401 116.07 234.288 116.442 234.044C116.529 233.966 116.595 233.868 116.635 233.759C116.674 233.65 116.686 233.532 116.669 233.417C116.664 233.349 116.642 233.284 116.605 233.227C116.567 233.17 116.516 233.123 116.455 233.091C115.824 232.74 113.712 233.806 113.473 233.925C113.45 233.935 113.43 233.951 113.416 233.971C113.402 233.992 113.395 234.016 113.395 234.041C113.395 234.066 113.402 234.09 113.416 234.111C113.43 234.132 113.45 234.148 113.473 234.157C114.034 234.283 114.606 234.353 115.181 234.364ZM116.121 233.279C116.201 233.274 116.281 233.289 116.354 233.323C116.379 233.337 116.4 233.357 116.414 233.381C116.429 233.405 116.436 233.433 116.436 233.461C116.448 233.533 116.441 233.607 116.417 233.676C116.393 233.745 116.352 233.807 116.297 233.856C115.976 234.145 115.106 234.195 113.939 234.001C114.62 233.639 115.358 233.395 116.121 233.279Z" fill="#407BFF"/>
<path d="M113.548 234.182H113.598C114.229 233.9 115.49 232.771 115.376 232.175C115.376 232.031 115.25 231.862 114.904 231.824C114.779 231.81 114.654 231.822 114.534 231.859C114.415 231.895 114.305 231.956 114.21 232.037C113.58 232.589 113.428 234 113.422 234.057C113.421 234.079 113.426 234.101 113.436 234.12C113.446 234.14 113.46 234.157 113.479 234.169C113.499 234.182 113.524 234.187 113.548 234.182ZM114.809 232.056H114.885C115.112 232.056 115.131 232.175 115.131 232.2C115.194 232.558 114.349 233.455 113.706 233.837C113.756 233.241 113.992 232.676 114.38 232.219C114.496 232.115 114.646 232.056 114.803 232.056H114.809Z" fill="#407BFF"/>
<path d="M95.2513 114.749L94.7091 116.631C94.6334 116.775 94.81 116.925 95.0559 116.925H117.123C117.319 116.925 117.476 116.831 117.489 116.712L117.684 114.831C117.684 114.699 117.527 114.586 117.319 114.586H95.6044C95.5364 114.581 95.4682 114.593 95.4064 114.622C95.3446 114.65 95.2912 114.694 95.2513 114.749Z" fill="#263238"/>
<path d="M98.1649 117.158H97.5786C97.4651 117.158 97.3768 117.101 97.3831 117.026L97.6542 114.517C97.6542 114.448 97.7677 114.386 97.8812 114.386H98.4613C98.5811 114.386 98.663 114.448 98.6567 114.517L98.3856 117.026C98.3856 117.126 98.2847 117.158 98.1649 117.158Z" fill="#407BFF"/>
<path opacity="0.4" d="M98.1649 117.158H97.5786C97.4651 117.158 97.3768 117.101 97.3831 117.026L97.6542 114.517C97.6542 114.448 97.7677 114.386 97.8812 114.386H98.4613C98.5811 114.386 98.663 114.448 98.6567 114.517L98.3856 117.026C98.3856 117.126 98.2847 117.158 98.1649 117.158Z" fill="black"/>
<path d="M115.459 117.158H114.879C114.766 117.158 114.678 117.101 114.684 117.026L114.961 114.517C114.961 114.448 115.069 114.386 115.182 114.386H115.762C115.882 114.386 115.97 114.448 115.958 114.517L115.686 117.026C115.68 117.126 115.579 117.158 115.459 117.158Z" fill="#407BFF"/>
<path opacity="0.4" d="M115.459 117.158H114.879C114.766 117.158 114.678 117.101 114.684 117.026L114.961 114.517C114.961 114.448 115.069 114.386 115.182 114.386H115.762C115.882 114.386 115.97 114.448 115.958 114.517L115.686 117.026C115.68 117.126 115.579 117.158 115.459 117.158Z" fill="black"/>
<path d="M106.812 117.158H106.232C106.112 117.158 106.024 117.101 106.036 117.026L106.307 114.517C106.307 114.448 106.415 114.386 106.534 114.386H107.115C107.228 114.386 107.316 114.448 107.31 114.517L107.039 117.026C107.033 117.126 106.925 117.158 106.812 117.158Z" fill="#407BFF"/>
<path opacity="0.4" d="M106.812 117.158H106.232C106.112 117.158 106.024 117.101 106.036 117.026L106.307 114.517C106.307 114.448 106.415 114.386 106.534 114.386H107.115C107.228 114.386 107.316 114.448 107.31 114.517L107.039 117.026C107.033 117.126 106.925 117.158 106.812 117.158Z" fill="black"/>
<path d="M107.25 65.8196L108.202 65.3555C108.202 65.3555 107.824 66.2272 107.25 65.8196Z" fill="#263238"/>
<path d="M94.1142 124.708L98.6348 128.157L93.3954 129.305C93.3954 129.305 91.1698 126.796 91.939 124.727L94.1142 124.708Z" fill="#FFC3BD"/>
<path d="M99.7465 132.428L95.3078 133.149L92.8867 128.621L98.6368 128.157L99.7465 132.428Z" fill="#FFC3BD"/>
</svg>
