<svg width="22" height="22" viewBox="0 0 22 22" fill="none" xmlns="http://www.w3.org/2000/svg">
<path d="M1 3.99992H4.545C4.6668 4.69521 5.02988 5.32528 5.57036 5.77931C6.11085 6.23335 6.79412 6.48225 7.5 6.48225C8.20588 6.48225 8.88916 6.23335 9.42964 5.77931C9.97012 5.32528 10.3332 4.69521 10.455 3.99992H21C21.1326 3.99992 21.2598 3.94724 21.3536 3.85347C21.4473 3.7597 21.5 3.63252 21.5 3.49992C21.5 3.36731 21.4473 3.24013 21.3536 3.14636C21.2598 3.05259 21.1326 2.99992 21 2.99992H10.455C10.3332 2.30462 9.97012 1.67455 9.42964 1.22052C8.88916 0.766485 8.20588 0.517578 7.5 0.517578C6.79412 0.517578 6.11085 0.766485 5.57036 1.22052C5.02988 1.67455 4.6668 2.30462 4.545 2.99992H1C0.867392 2.99992 0.740215 3.05259 0.646447 3.14636C0.552678 3.24013 0.5 3.36731 0.5 3.49992C0.5 3.63252 0.552678 3.7597 0.646447 3.85347C0.740215 3.94724 0.867392 3.99992 1 3.99992ZM7.5 1.49992C7.89556 1.49992 8.28224 1.61721 8.61114 1.83698C8.94004 2.05674 9.19638 2.3691 9.34776 2.73455C9.49913 3.1 9.53874 3.50213 9.46157 3.8901C9.3844 4.27806 9.19392 4.63442 8.91421 4.91413C8.63451 5.19383 8.27814 5.38432 7.89018 5.46149C7.50222 5.53866 7.10009 5.49905 6.73463 5.34767C6.36918 5.1963 6.05682 4.93995 5.83706 4.61106C5.6173 4.28216 5.5 3.89548 5.5 3.49992C5.5 2.96948 5.71071 2.46077 6.08579 2.0857C6.46086 1.71063 6.96957 1.49992 7.5 1.49992ZM21 10.4999H17.455C17.3332 9.80462 16.9701 9.17455 16.4296 8.72052C15.8892 8.26648 15.2059 8.01758 14.5 8.01758C13.7941 8.01758 13.1108 8.26648 12.5704 8.72052C12.0299 9.17455 11.6668 9.80462 11.545 10.4999H1C0.867392 10.4999 0.740215 10.5526 0.646447 10.6464C0.552678 10.7401 0.5 10.8673 0.5 10.9999C0.5 11.1325 0.552678 11.2597 0.646447 11.3535C0.740215 11.4472 0.867392 11.4999 1 11.4999H11.545C11.6668 12.1952 12.0299 12.8253 12.5704 13.2793C13.1108 13.7333 13.7941 13.9823 14.5 13.9823C15.2059 13.9823 15.8892 13.7333 16.4296 13.2793C16.9701 12.8253 17.3332 12.1952 17.455 11.4999H21C21.1326 11.4999 21.2598 11.4472 21.3536 11.3535C21.4473 11.2597 21.5 11.1325 21.5 10.9999C21.5 10.8673 21.4473 10.7401 21.3536 10.6464C21.2598 10.5526 21.1326 10.4999 21 10.4999ZM14.5 12.9999C14.1044 12.9999 13.7178 12.8826 13.3889 12.6629C13.06 12.4431 12.8036 12.1307 12.6522 11.7653C12.5009 11.3998 12.4613 10.9977 12.5384 10.6097C12.6156 10.2218 12.8061 9.86541 13.0858 9.5857C13.3655 9.306 13.7219 9.11551 14.1098 9.03834C14.4978 8.96117 14.8999 9.00078 15.2654 9.15216C15.6308 9.30353 15.9432 9.55988 16.1629 9.88877C16.3827 10.2177 16.5 10.6044 16.5 10.9999C16.5 11.5303 16.2893 12.0391 15.9142 12.4141C15.5391 12.7892 15.0304 12.9999 14.5 12.9999ZM21 17.9999H10.455C10.3332 17.3046 9.97012 16.6745 9.42964 16.2205C8.88916 15.7665 8.20588 15.5176 7.5 15.5176C6.79412 15.5176 6.11085 15.7665 5.57036 16.2205C5.02988 16.6745 4.6668 17.3046 4.545 17.9999H1C0.867392 17.9999 0.740215 18.0526 0.646447 18.1464C0.552678 18.2401 0.5 18.3673 0.5 18.4999C0.5 18.6325 0.552678 18.7597 0.646447 18.8535C0.740215 18.9472 0.867392 18.9999 1 18.9999H4.545C4.6668 19.6952 5.02988 20.3253 5.57036 20.7793C6.11085 21.2333 6.79412 21.4823 7.5 21.4823C8.20588 21.4823 8.88916 21.2333 9.42964 20.7793C9.97012 20.3253 10.3332 19.6952 10.455 18.9999H21C21.1326 18.9999 21.2598 18.9472 21.3536 18.8535C21.4473 18.7597 21.5 18.6325 21.5 18.4999C21.5 18.3673 21.4473 18.2401 21.3536 18.1464C21.2598 18.0526 21.1326 17.9999 21 17.9999ZM7.5 20.4999C7.10444 20.4999 6.71776 20.3826 6.38886 20.1629C6.05996 19.9431 5.80362 19.6307 5.65224 19.2653C5.50087 18.8998 5.46126 18.4977 5.53843 18.1097C5.6156 17.7218 5.80608 17.3654 6.08579 17.0857C6.36549 16.806 6.72186 16.6155 7.10982 16.5383C7.49778 16.4612 7.89991 16.5008 8.26537 16.6522C8.63082 16.8035 8.94318 17.0599 9.16294 17.3888C9.3827 17.7177 9.5 18.1044 9.5 18.4999C9.5 19.0303 9.28929 19.5391 8.91421 19.9141C8.53914 20.2892 8.03043 20.4999 7.5 20.4999Z" fill="black"/>
</svg>
