<svg width="22" height="17" viewBox="0 0 22 17" fill="none" xmlns="http://www.w3.org/2000/svg">
<path d="M11 3.72927C8.18293 3.72927 5.90244 6.00976 5.90244 8.82683C5.90244 11.6439 8.18293 13.9244 11 13.9244C13.8171 13.9244 16.0976 11.6439 16.0976 8.82683C16.0976 6.03659 13.8171 3.72927 11 3.72927ZM11 12.8512C8.77317 12.8512 6.97561 11.0537 6.97561 8.82683C6.97561 6.6 8.77317 4.80244 11 4.80244C13.2268 4.80244 15.0244 6.6 15.0244 8.82683C15.0244 11.0537 13.2268 12.8512 11 12.8512ZM19.8537 2.6561L15.8293 2.68293L14.139 0.214634C14.0317 0.0804876 13.8707 0 13.7098 0H8.29024C8.12927 0 7.96829 0.0804876 7.86098 0.214634L6.17073 2.68293H2.14634C0.965854 2.68293 0 3.62195 0 4.80244V13.9512C0 15.1317 0.965854 16.0976 2.14634 16.0976H19.8537C21.0341 16.0976 22 15.1317 22 13.9512V4.56098C22 3.38049 21.0341 2.6561 19.8537 2.6561ZM20.9268 13.9512C20.9268 14.5415 20.4439 15.0244 19.8537 15.0244H2.14634C1.5561 15.0244 1.07317 14.5415 1.07317 13.9512V4.80244C1.07317 4.2122 1.5561 3.7561 2.14634 3.7561H6.43902C6.6 3.7561 6.76098 3.67561 6.86829 3.54146L8.55854 1.07317H13.4415L15.1317 3.54146C15.239 3.67561 15.4 3.7561 15.561 3.7561L19.8537 3.72927C20.4439 3.72927 20.9268 3.97073 20.9268 4.56098V13.9512Z" fill="#212121"/>
</svg>
